<svg width="134" height="59" viewBox="0 0 134 59" fill="none" xmlns="http://www.w3.org/2000/svg">
<g id="Mskan Logo" clip-path="url(#clip0_11_665)">
<path id="Vector" d="M125.501 15.2936L119.508 9.30914L108.377 20.667L108.413 20.703H108.377V36.6616H116.806V24.1715L125.501 15.2936Z" fill="#11151d"/>
<path id="Vector_2" d="M125.5 15.2936V36.6257H133.929V24.1715L125.5 15.2936Z" fill="#11151d"/>
<path id="Vector_3" d="M19.6128 52.3865L13.6027 59L0 46.438L0.0355626 46.402H0V21.4039H10.3132V42.5741L19.6128 52.3865Z" fill="#11151d"/>
<path id="Vector_4" d="M19.6128 52.3865V21.4578H29.926V42.5742L19.6128 52.3865Z" fill="#11151d"/>
<path id="Vector_5" d="M134 36.1943V43.8501H95.3078V44.0658H37.9275V43.9939H33.251V3.50442H40.808V36.428H60.1008L50.9434 26.9211L50.9256 26.9031L45.6623 21.6016L45.2178 21.1523V8.62626L46.2313 8.26683L67.2489 0.718855L69.2581 0V8.69814L68.2624 9.05757L51.3879 15.1319L60.9187 24.7645L60.972 24.8005L61.0076 24.8364L69.9516 35.3137L70.9118 36.428H73.4723V16.1922H81.0294V36.428H83.5899V16.1922H91.1469V36.428H93.2629V16.1922H100.82V36.1943H134Z" fill="#11151d"/>
<path id="Vector_6" d="M19.2038 3.66614H11.6467V12.7596H19.2038V3.66614Z" fill="#11151d"/>
<path id="Vector_7" d="M52.0103 25.8428L46.7471 20.5233V9.70453L67.7468 2.15656V7.61985L48.8097 14.431V14.6646L59.8519 25.8428L68.8137 36.3022L62.5724 36.8053L52.0103 25.8428Z" fill="#11151d"/>
</g>
<defs>
<clipPath id="clip0_11_665">
<rect width="134" height="59" fill="#11151d"/>
</clipPath>
</defs>
</svg>
